<mxfile host="app.diagrams.net" agent="Mozilla/5.0 (X11; Ubuntu; Linux x86_64; rv:142.0) Gecko/20100101 Firefox/142.0" version="28.1.2">
  <diagram name="Page-1" id="d09i-FvGpK7I-06Naf2z">
    <mxGraphModel dx="2037" dy="1140" grid="1" gridSize="10" guides="1" tooltips="1" connect="1" arrows="1" fold="1" page="1" pageScale="1" pageWidth="850" pageHeight="1100" math="0" shadow="0">
      <root>
        <mxCell id="0" />
        <mxCell id="1" parent="0" />
        <mxCell id="uPZraydYpuhak4WI--4d-1" value="&lt;b&gt;&lt;font style=&quot;font-size: 20px;&quot;&gt;TESCHBENCH&lt;/font&gt;&lt;/b&gt;" style="text;html=1;align=center;verticalAlign=middle;whiteSpace=wrap;rounded=0;" vertex="1" parent="1">
          <mxGeometry x="1020" y="250" width="60" height="30" as="geometry" />
        </mxCell>
        <mxCell id="uPZraydYpuhak4WI--4d-2" value="" style="edgeStyle=orthogonalEdgeStyle;rounded=0;orthogonalLoop=1;jettySize=auto;html=1;" edge="1" parent="1" source="uPZraydYpuhak4WI--4d-3" target="uPZraydYpuhak4WI--4d-18">
          <mxGeometry relative="1" as="geometry" />
        </mxCell>
        <mxCell id="uPZraydYpuhak4WI--4d-3" value="&lt;font style=&quot;font-size: 20px;&quot;&gt;&lt;b&gt;DUT&lt;br&gt;&lt;br&gt;Aligner&lt;/b&gt;&lt;/font&gt;" style="rounded=1;whiteSpace=wrap;html=1;strokeWidth=3;" vertex="1" parent="1">
          <mxGeometry x="1410" y="425" width="260" height="625" as="geometry" />
        </mxCell>
        <mxCell id="uPZraydYpuhak4WI--4d-4" value="" style="rounded=1;whiteSpace=wrap;html=1;strokeWidth=2;" vertex="1" parent="1">
          <mxGeometry x="1140" y="480" width="200" height="150" as="geometry" />
        </mxCell>
        <mxCell id="uPZraydYpuhak4WI--4d-5" value="Sequencer" style="rounded=1;whiteSpace=wrap;html=1;" vertex="1" parent="1">
          <mxGeometry x="1250" y="590" width="80" height="30" as="geometry" />
        </mxCell>
        <mxCell id="uPZraydYpuhak4WI--4d-6" value="Driver" style="rounded=1;whiteSpace=wrap;html=1;" vertex="1" parent="1">
          <mxGeometry x="1150" y="590" width="80" height="30" as="geometry" />
        </mxCell>
        <mxCell id="uPZraydYpuhak4WI--4d-7" value="Monitor" style="rounded=1;whiteSpace=wrap;html=1;" vertex="1" parent="1">
          <mxGeometry x="1150" y="550" width="80" height="30" as="geometry" />
        </mxCell>
        <mxCell id="uPZraydYpuhak4WI--4d-8" value="Coverage" style="rounded=1;whiteSpace=wrap;html=1;" vertex="1" parent="1">
          <mxGeometry x="1150" y="510" width="80" height="30" as="geometry" />
        </mxCell>
        <mxCell id="uPZraydYpuhak4WI--4d-9" value="Config." style="rounded=1;whiteSpace=wrap;html=1;" vertex="1" parent="1">
          <mxGeometry x="1250" y="510" width="80" height="30" as="geometry" />
        </mxCell>
        <mxCell id="uPZraydYpuhak4WI--4d-10" value="Interface" style="rounded=1;whiteSpace=wrap;html=1;" vertex="1" parent="1">
          <mxGeometry x="1250" y="550" width="80" height="30" as="geometry" />
        </mxCell>
        <mxCell id="uPZraydYpuhak4WI--4d-11" value="" style="rounded=1;whiteSpace=wrap;html=1;strokeWidth=2;" vertex="1" parent="1">
          <mxGeometry x="1140" y="650" width="200" height="150" as="geometry" />
        </mxCell>
        <mxCell id="uPZraydYpuhak4WI--4d-12" value="Sequencer" style="rounded=1;whiteSpace=wrap;html=1;" vertex="1" parent="1">
          <mxGeometry x="1250" y="760" width="80" height="30" as="geometry" />
        </mxCell>
        <mxCell id="uPZraydYpuhak4WI--4d-13" value="&lt;b&gt;TX Agent&lt;/b&gt;" style="text;html=1;align=center;verticalAlign=middle;whiteSpace=wrap;rounded=0;" vertex="1" parent="1">
          <mxGeometry x="1202.5" y="480" width="75" height="30" as="geometry" />
        </mxCell>
        <mxCell id="uPZraydYpuhak4WI--4d-14" value="Driver" style="rounded=1;whiteSpace=wrap;html=1;" vertex="1" parent="1">
          <mxGeometry x="1150" y="760" width="80" height="30" as="geometry" />
        </mxCell>
        <mxCell id="uPZraydYpuhak4WI--4d-15" value="Monitor" style="rounded=1;whiteSpace=wrap;html=1;" vertex="1" parent="1">
          <mxGeometry x="1150" y="720" width="80" height="30" as="geometry" />
        </mxCell>
        <mxCell id="uPZraydYpuhak4WI--4d-16" value="Coverage" style="rounded=1;whiteSpace=wrap;html=1;" vertex="1" parent="1">
          <mxGeometry x="1150" y="680" width="80" height="30" as="geometry" />
        </mxCell>
        <mxCell id="uPZraydYpuhak4WI--4d-17" value="Config." style="rounded=1;whiteSpace=wrap;html=1;" vertex="1" parent="1">
          <mxGeometry x="1250" y="680" width="80" height="30" as="geometry" />
        </mxCell>
        <mxCell id="uPZraydYpuhak4WI--4d-18" value="Interface" style="rounded=1;whiteSpace=wrap;html=1;" vertex="1" parent="1">
          <mxGeometry x="1250" y="720" width="80" height="30" as="geometry" />
        </mxCell>
        <mxCell id="uPZraydYpuhak4WI--4d-19" value="" style="rounded=1;whiteSpace=wrap;html=1;strokeWidth=2;" vertex="1" parent="1">
          <mxGeometry x="1140" y="820" width="200" height="150" as="geometry" />
        </mxCell>
        <mxCell id="uPZraydYpuhak4WI--4d-20" value="Sequencer" style="rounded=1;whiteSpace=wrap;html=1;" vertex="1" parent="1">
          <mxGeometry x="1250" y="930" width="80" height="30" as="geometry" />
        </mxCell>
        <mxCell id="uPZraydYpuhak4WI--4d-21" value="&lt;b&gt;RX Agent&lt;/b&gt;" style="text;html=1;align=center;verticalAlign=middle;whiteSpace=wrap;rounded=0;" vertex="1" parent="1">
          <mxGeometry x="1202.5" y="820" width="75" height="30" as="geometry" />
        </mxCell>
        <mxCell id="uPZraydYpuhak4WI--4d-22" value="Driver" style="rounded=1;whiteSpace=wrap;html=1;" vertex="1" parent="1">
          <mxGeometry x="1150" y="930" width="80" height="30" as="geometry" />
        </mxCell>
        <mxCell id="uPZraydYpuhak4WI--4d-23" value="Monitor" style="rounded=1;whiteSpace=wrap;html=1;" vertex="1" parent="1">
          <mxGeometry x="1150" y="890" width="80" height="30" as="geometry" />
        </mxCell>
        <mxCell id="uPZraydYpuhak4WI--4d-24" value="Coverage" style="rounded=1;whiteSpace=wrap;html=1;" vertex="1" parent="1">
          <mxGeometry x="1150" y="850" width="80" height="30" as="geometry" />
        </mxCell>
        <mxCell id="uPZraydYpuhak4WI--4d-25" value="Config." style="rounded=1;whiteSpace=wrap;html=1;" vertex="1" parent="1">
          <mxGeometry x="1250" y="850" width="80" height="30" as="geometry" />
        </mxCell>
        <mxCell id="uPZraydYpuhak4WI--4d-26" value="Interface" style="rounded=1;whiteSpace=wrap;html=1;" vertex="1" parent="1">
          <mxGeometry x="1250" y="890" width="80" height="30" as="geometry" />
        </mxCell>
        <mxCell id="uPZraydYpuhak4WI--4d-27" value="" style="shape=flexArrow;endArrow=classic;startArrow=classic;html=1;rounded=0;entryX=1;entryY=0.5;entryDx=0;entryDy=0;fillColor=#647687;strokeColor=#314354;exitX=0;exitY=0.223;exitDx=0;exitDy=0;exitPerimeter=0;" edge="1" parent="1" source="uPZraydYpuhak4WI--4d-3" target="uPZraydYpuhak4WI--4d-10">
          <mxGeometry width="100" height="100" relative="1" as="geometry">
            <mxPoint x="1400" y="565" as="sourcePoint" />
            <mxPoint x="1110" y="620" as="targetPoint" />
          </mxGeometry>
        </mxCell>
        <mxCell id="uPZraydYpuhak4WI--4d-28" value="" style="shape=flexArrow;endArrow=classic;startArrow=classic;html=1;rounded=0;entryX=1;entryY=0.5;entryDx=0;entryDy=0;fillColor=#647687;strokeColor=#314354;exitX=0;exitY=0.496;exitDx=0;exitDy=0;exitPerimeter=0;" edge="1" parent="1" source="uPZraydYpuhak4WI--4d-3" target="uPZraydYpuhak4WI--4d-18">
          <mxGeometry width="100" height="100" relative="1" as="geometry">
            <mxPoint x="1390" y="730" as="sourcePoint" />
            <mxPoint x="1330" y="734.8" as="targetPoint" />
          </mxGeometry>
        </mxCell>
        <mxCell id="uPZraydYpuhak4WI--4d-29" value="" style="shape=flexArrow;endArrow=classic;startArrow=classic;html=1;rounded=0;fillColor=#647687;strokeColor=#314354;exitX=-0.003;exitY=0.77;exitDx=0;exitDy=0;exitPerimeter=0;entryX=1;entryY=0.5;entryDx=0;entryDy=0;" edge="1" parent="1" source="uPZraydYpuhak4WI--4d-3" target="uPZraydYpuhak4WI--4d-26">
          <mxGeometry width="100" height="100" relative="1" as="geometry">
            <mxPoint x="1410" y="904.5" as="sourcePoint" />
            <mxPoint x="1331" y="906" as="targetPoint" />
          </mxGeometry>
        </mxCell>
        <mxCell id="uPZraydYpuhak4WI--4d-30" value="&lt;b&gt;APB Agent&lt;/b&gt;" style="text;html=1;align=center;verticalAlign=middle;whiteSpace=wrap;rounded=0;" vertex="1" parent="1">
          <mxGeometry x="1205" y="650" width="70" height="30" as="geometry" />
        </mxCell>
        <mxCell id="uPZraydYpuhak4WI--4d-31" value="&lt;b&gt;Predictor&lt;/b&gt;" style="rounded=1;whiteSpace=wrap;html=1;strokeWidth=2;" vertex="1" parent="1">
          <mxGeometry x="990" y="715.75" width="80" height="38.5" as="geometry" />
        </mxCell>
        <mxCell id="uPZraydYpuhak4WI--4d-32" value="" style="rounded=1;whiteSpace=wrap;html=1;strokeWidth=2;" vertex="1" parent="1">
          <mxGeometry x="790" y="690" width="130" height="80" as="geometry" />
        </mxCell>
        <mxCell id="uPZraydYpuhak4WI--4d-33" value="&lt;b&gt;Model&lt;/b&gt;" style="text;html=1;align=center;verticalAlign=middle;whiteSpace=wrap;rounded=0;" vertex="1" parent="1">
          <mxGeometry x="822.5" y="693" width="65" height="27" as="geometry" />
        </mxCell>
        <mxCell id="uPZraydYpuhak4WI--4d-34" value="Register Model" style="rounded=0;whiteSpace=wrap;html=1;strokeWidth=2;" vertex="1" parent="1">
          <mxGeometry x="807.5" y="719.25" width="100" height="35" as="geometry" />
        </mxCell>
        <mxCell id="uPZraydYpuhak4WI--4d-35" value="" style="shape=flexArrow;endArrow=classic;startArrow=classic;html=1;rounded=0;entryX=1;entryY=0.5;entryDx=0;entryDy=0;fillColor=#647687;strokeColor=#314354;exitX=0;exitY=0.565;exitDx=0;exitDy=0;exitPerimeter=0;" edge="1" parent="1" source="uPZraydYpuhak4WI--4d-11">
          <mxGeometry width="100" height="100" relative="1" as="geometry">
            <mxPoint x="1130" y="735" as="sourcePoint" />
            <mxPoint x="1070" y="734.8199999999999" as="targetPoint" />
          </mxGeometry>
        </mxCell>
        <mxCell id="uPZraydYpuhak4WI--4d-36" value="" style="shape=flexArrow;endArrow=classic;startArrow=classic;html=1;rounded=0;fillColor=#647687;strokeColor=#314354;exitX=0;exitY=0.565;exitDx=0;exitDy=0;exitPerimeter=0;entryX=1;entryY=0.5;entryDx=0;entryDy=0;" edge="1" parent="1" target="uPZraydYpuhak4WI--4d-34">
          <mxGeometry width="100" height="100" relative="1" as="geometry">
            <mxPoint x="990" y="737.31" as="sourcePoint" />
            <mxPoint x="930" y="737" as="targetPoint" />
          </mxGeometry>
        </mxCell>
        <mxCell id="uPZraydYpuhak4WI--4d-37" value="" style="shape=flexArrow;endArrow=classic;html=1;rounded=0;exitX=0;exitY=0.75;exitDx=0;exitDy=0;fillColor=#647687;strokeColor=#314354;entryX=0.75;entryY=0;entryDx=0;entryDy=0;" edge="1" parent="1" source="uPZraydYpuhak4WI--4d-4" target="uPZraydYpuhak4WI--4d-32">
          <mxGeometry width="50" height="50" relative="1" as="geometry">
            <mxPoint x="960" y="550" as="sourcePoint" />
            <mxPoint x="900" y="670" as="targetPoint" />
            <Array as="points">
              <mxPoint x="888" y="593" />
            </Array>
          </mxGeometry>
        </mxCell>
        <mxCell id="uPZraydYpuhak4WI--4d-38" value="" style="shape=flexArrow;endArrow=classic;html=1;rounded=0;exitX=0;exitY=0.25;exitDx=0;exitDy=0;entryX=0.75;entryY=1;entryDx=0;entryDy=0;fillColor=#647687;strokeColor=#314354;" edge="1" parent="1" source="uPZraydYpuhak4WI--4d-19" target="uPZraydYpuhak4WI--4d-32">
          <mxGeometry width="50" height="50" relative="1" as="geometry">
            <mxPoint x="1075" y="890" as="sourcePoint" />
            <mxPoint x="790" y="1025" as="targetPoint" />
            <Array as="points">
              <mxPoint x="888" y="858" />
            </Array>
          </mxGeometry>
        </mxCell>
        <mxCell id="uPZraydYpuhak4WI--4d-39" value="" style="shape=flexArrow;endArrow=classic;html=1;rounded=0;exitX=0;exitY=0.75;exitDx=0;exitDy=0;fillColor=#647687;strokeColor=#314354;entryX=0.25;entryY=1;entryDx=0;entryDy=0;" edge="1" parent="1" source="uPZraydYpuhak4WI--4d-19" target="uPZraydYpuhak4WI--4d-43">
          <mxGeometry width="50" height="50" relative="1" as="geometry">
            <mxPoint x="1075" y="920" as="sourcePoint" />
            <mxPoint x="630" y="750" as="targetPoint" />
            <Array as="points">
              <mxPoint x="603" y="933" />
            </Array>
          </mxGeometry>
        </mxCell>
        <mxCell id="uPZraydYpuhak4WI--4d-40" value="" style="shape=flexArrow;endArrow=classic;html=1;rounded=0;exitX=0;exitY=0.25;exitDx=0;exitDy=0;fillColor=#647687;strokeColor=#314354;entryX=0.25;entryY=0;entryDx=0;entryDy=0;" edge="1" parent="1" source="uPZraydYpuhak4WI--4d-4" target="uPZraydYpuhak4WI--4d-43">
          <mxGeometry width="50" height="50" relative="1" as="geometry">
            <mxPoint x="1070" y="540" as="sourcePoint" />
            <mxPoint x="610" y="710" as="targetPoint" />
            <Array as="points">
              <mxPoint x="603" y="518" />
            </Array>
          </mxGeometry>
        </mxCell>
        <mxCell id="uPZraydYpuhak4WI--4d-41" value="&lt;b&gt;Coverage&lt;/b&gt;" style="rounded=1;whiteSpace=wrap;html=1;strokeWidth=2;" vertex="1" parent="1">
          <mxGeometry x="680" y="715" width="60" height="30" as="geometry" />
        </mxCell>
        <mxCell id="uPZraydYpuhak4WI--4d-42" value="" style="shape=flexArrow;endArrow=classic;html=1;rounded=0;exitX=0;exitY=0.5;exitDx=0;exitDy=0;entryX=1;entryY=0.5;entryDx=0;entryDy=0;fillColor=#647687;strokeColor=#314354;" edge="1" parent="1" source="uPZraydYpuhak4WI--4d-32" target="uPZraydYpuhak4WI--4d-41">
          <mxGeometry width="50" height="50" relative="1" as="geometry">
            <mxPoint x="670" y="810" as="sourcePoint" />
            <mxPoint x="720" y="760" as="targetPoint" />
          </mxGeometry>
        </mxCell>
        <mxCell id="uPZraydYpuhak4WI--4d-43" value="&lt;b&gt;Scoreboard&lt;/b&gt;" style="rounded=1;whiteSpace=wrap;html=1;strokeWidth=2;" vertex="1" parent="1">
          <mxGeometry x="580" y="712.5" width="90" height="35" as="geometry" />
        </mxCell>
        <mxCell id="uPZraydYpuhak4WI--4d-44" value="" style="shape=flexArrow;endArrow=classic;html=1;rounded=0;exitX=0.25;exitY=0;exitDx=0;exitDy=0;fillColor=#647687;strokeColor=#314354;entryX=0.75;entryY=0;entryDx=0;entryDy=0;" edge="1" parent="1">
          <mxGeometry width="50" height="50" relative="1" as="geometry">
            <mxPoint x="822" y="690" as="sourcePoint" />
            <mxPoint x="647" y="712.5" as="targetPoint" />
            <Array as="points">
              <mxPoint x="822" y="650" />
              <mxPoint x="647.5" y="650" />
            </Array>
          </mxGeometry>
        </mxCell>
        <mxCell id="uPZraydYpuhak4WI--4d-45" value="" style="shape=flexArrow;endArrow=classic;html=1;rounded=0;exitX=0.25;exitY=1;exitDx=0;exitDy=0;fillColor=#647687;strokeColor=#314354;entryX=0.75;entryY=1;entryDx=0;entryDy=0;" edge="1" parent="1" source="uPZraydYpuhak4WI--4d-32" target="uPZraydYpuhak4WI--4d-43">
          <mxGeometry width="50" height="50" relative="1" as="geometry">
            <mxPoint x="822.5" y="857.5" as="sourcePoint" />
            <mxPoint x="647.5" y="880" as="targetPoint" />
            <Array as="points">
              <mxPoint x="822.5" y="817.5" />
              <mxPoint x="648" y="817.5" />
            </Array>
          </mxGeometry>
        </mxCell>
        <mxCell id="uPZraydYpuhak4WI--4d-46" value="" style="endArrow=none;html=1;rounded=0;strokeWidth=2;" edge="1" parent="1">
          <mxGeometry width="50" height="50" relative="1" as="geometry">
            <mxPoint x="1380" y="1050" as="sourcePoint" />
            <mxPoint x="1380" y="1050" as="targetPoint" />
            <Array as="points">
              <mxPoint x="390" y="1050" />
              <mxPoint x="390" y="330" />
              <mxPoint x="1380" y="330" />
            </Array>
          </mxGeometry>
        </mxCell>
        <mxCell id="uPZraydYpuhak4WI--4d-47" value="&lt;b&gt;Virtual Sequencer&lt;/b&gt;" style="rounded=1;whiteSpace=wrap;html=1;strokeWidth=2;" vertex="1" parent="1">
          <mxGeometry x="420" y="600" width="120" height="30" as="geometry" />
        </mxCell>
        <mxCell id="uPZraydYpuhak4WI--4d-48" value="&lt;b&gt;Config.&lt;/b&gt;" style="rounded=1;whiteSpace=wrap;html=1;strokeWidth=2;" vertex="1" parent="1">
          <mxGeometry x="420" y="800" width="120" height="30" as="geometry" />
        </mxCell>
        <mxCell id="uPZraydYpuhak4WI--4d-49" value="&lt;font style=&quot;font-size: 20px;&quot;&gt;&lt;b&gt;UVM ENVIRONMENT&lt;/b&gt;&lt;/font&gt;" style="text;html=1;align=center;verticalAlign=middle;whiteSpace=wrap;rounded=0;" vertex="1" parent="1">
          <mxGeometry x="840" y="410" width="206.25" height="30" as="geometry" />
        </mxCell>
        <mxCell id="uPZraydYpuhak4WI--4d-50" value="" style="endArrow=none;html=1;rounded=0;strokeWidth=2;" edge="1" parent="1">
          <mxGeometry width="50" height="50" relative="1" as="geometry">
            <mxPoint x="1360" y="1000" as="sourcePoint" />
            <mxPoint x="1360" y="1000" as="targetPoint" />
            <Array as="points">
              <mxPoint x="570" y="1000" />
              <mxPoint x="570" y="400" />
              <mxPoint x="1360" y="400" />
            </Array>
          </mxGeometry>
        </mxCell>
        <mxCell id="uPZraydYpuhak4WI--4d-51" value="&lt;font style=&quot;font-size: 20px;&quot;&gt;&lt;b&gt;UVM TEST&lt;/b&gt;&lt;/font&gt;" style="text;whiteSpace=wrap;html=1;" vertex="1" parent="1">
          <mxGeometry x="887.5" y="330" width="230" height="50" as="geometry" />
        </mxCell>
        <mxCell id="uPZraydYpuhak4WI--4d-52" value="" style="endArrow=none;html=1;rounded=0;strokeWidth=2;" edge="1" parent="1">
          <mxGeometry width="50" height="50" relative="1" as="geometry">
            <mxPoint x="1710" y="1120" as="sourcePoint" />
            <mxPoint x="1710" y="1120" as="targetPoint" />
            <Array as="points">
              <mxPoint x="350" y="1120" />
              <mxPoint x="350" y="240" />
              <mxPoint x="1710" y="240" />
            </Array>
          </mxGeometry>
        </mxCell>
      </root>
    </mxGraphModel>
  </diagram>
</mxfile>
